HIERARCHY
ROOT Hips
{
  OFFSET -213.699 104.721 0.752556
  CHANNELS 6 Xposition Yposition Zposition Zrotation Xrotation Yrotation
  JOINT RightUpLeg
  {
    OFFSET -8.9458 -8.66707 0.101652
    CHANNELS 3 Zrotation Xrotation Yrotation
    JOINT RightLeg
    {
      OFFSET 0 -44.4227 1.3727
      CHANNELS 3 Zrotation Xrotation Yrotation
      JOINT RightFoot
      {
        OFFSET 0.253549 -42.0924 -1.46059
        CHANNELS 3 Zrotation Xrotation Yrotation
        JOINT RightToes
        {
          OFFSET 0.04 -4.41509 8.4991
          CHANNELS 3 Zrotation Xrotation Yrotation
          End Site
          {
            OFFSET -0.08 -0.137448 9.77979
          }
        }
      }
    }
  }
  JOINT Spine
  {
    OFFSET 0 11.8905 0
    CHANNELS 3 Zrotation Xrotation Yrotation
    JOINT Spine1
    {
      OFFSET 0 25.6574 0.127663
      CHANNELS 3 Zrotation Xrotation Yrotation
      JOINT HEad
      {
        OFFSET 0 8.73416 0.011341
        CHANNELS 3 Zrotation Xrotation Yrotation
        End Site
        {
          OFFSET -0.29 12.7742 2.51395
        }
      }
      JOINT LeftShoulder1
      {
        OFFSET 8.99 -0.362252 -0.22
        CHANNELS 3 Zrotation Xrotation Yrotation
        JOINT LeftArm
        {
          OFFSET 10.2827 -0.00337999 0.322123
          CHANNELS 3 Zrotation Xrotation Yrotation
          JOINT LeftForeArm
          {
            OFFSET 26.2597 0.099144 -1.42434
            CHANNELS 3 Zrotation Xrotation Yrotation
            JOINT LeftHand
            {
              OFFSET 22.0902 0.085362 1.02216
              CHANNELS 3 Zrotation Xrotation Yrotation
              End Site
              {
                OFFSET 13.419 -0.6 1.50291
              }
            }
          }
        }
      }
      JOINT RightShoulder
      {
        OFFSET -8.99 -0.362252 -0.22
        CHANNELS 3 Zrotation Xrotation Yrotation
        JOINT RightArm
        {
          OFFSET -10.2827 -0.00338 0.322123
          CHANNELS 3 Zrotation Xrotation Yrotation
          JOINT RightForeArm
          {
            OFFSET -26.364 0.099144 -1.42434
            CHANNELS 3 Zrotation Xrotation Yrotation
            JOINT RightHand
            {
              OFFSET -22.0324 0.085362 1.02216
              CHANNELS 3 Zrotation Xrotation Yrotation
              End Site
              {
                OFFSET -13.3284 -0.6 1.50291
              }
            }
          }
        }
      }
    }
  }
  JOINT LeftUpLeg
  {
    OFFSET 8.9458 -8.66707 0.101652
    CHANNELS 3 Zrotation Xrotation Yrotation
    JOINT LeftLeg
    {
      OFFSET 0 -44.4227 1.3727
      CHANNELS 3 Zrotation Xrotation Yrotation
      JOINT LeftFoot
      {
        OFFSET -0.253549 -42.0924 -1.46059
        CHANNELS 3 Zrotation Xrotation Yrotation
        JOINT LeftToes
        {
          OFFSET -0.04 -4.41509 8.4991
          CHANNELS 3 Zrotation Xrotation Yrotation
          End Site
          {
            OFFSET 0.08 -0.047448 9.77979
          }
        }
      }
    }
  }
}
MOTION
Frames:	14
Frame Time:	0.0333333
45.1821 103.144 120.331 -0.0542101 -4.35455 -5.51408 0.885364 0.497428 -1.43545 -0.733354 10.1951 -9.12805 -3.09448 -2.95999 -0.0131541 0.0462048 0.000530889 0.662642 -4.47472 4.501 -0.796945 4.0526 5.42687 -1.80107 -2.63258 18.9186 -2.23745 -31.8952 -3.98005 13.9694 -77.2756 -44.5386 -35.1503 -169.119 71.7721 170 9.15172 8.92547 -8.13044 31.8465 -1.51184 -8.06356 53.2653 -25.4561 20.1912 8.34163 63.4176 4.2634 -0.78064 9.89815 1.83714 1.86388 0.596216 3.13636 1.53346 9.69725 13.9253 -0.157078 -3.77341 0.0124617 -1.35049e-009 8.75224e-006 -1.46981e-008 
45.275 103.148 120.384 -0.0139866 -4.23029 -5.62264 0.78048 0.345888 -1.48414 -0.729218 10.2556 -8.96612 -3.07795 -2.99105 -0.0169896 0.0462048 0.000530889 0.662642 -4.48946 4.39189 -0.814447 4.10461 5.47402 -1.82864 -3.00455 18.9764 -2.15366 -31.9176 -3.95985 13.9103 -77.5705 -44.8198 -35.359 -169.24 71.7374 170.436 9.24457 8.90092 -8.32749 31.6291 -1.44895 -7.92321 53.3465 -25.4744 20.3173 7.9955 62.9524 4.61627 -0.21883 9.93306 1.78602 1.72225 0.567825 3.0223 1.58222 9.55831 14.2288 -0.194367 -3.75695 0.0143 -1.35049e-009 8.75224e-006 -1.46981e-008 
45.3671 103.156 120.411 0.0227163 -4.10055 -5.6331 0.66163 0.215315 -1.55424 -0.681038 10.2498 -8.8627 -3.11093 -2.97466 -0.0200766 0.0462048 0.000530889 0.662642 -4.37599 4.31896 -0.836586 4.04046 5.47359 -1.83451 -3.29503 19.0109 -1.97847 -31.8752 -3.93074 13.8457 -77.7424 -44.9907 -35.4182 -169.516 71.4163 170.91 8.59396 8.96923 -8.46074 31.573 -1.41275 -7.83375 53.3387 -25.6964 20.5347 8.00864 63.6048 4.46629 0.0176314 9.94883 1.96893 1.62796 0.439958 2.95814 1.5818 9.55504 14.2569 -0.080454 -3.77347 0.0114079 -1.35049e-009 8.75224e-006 -1.46981e-008 
45.4363 103.151 120.417 0.0692378 -4.01232 -5.60806 0.588658 0.0597664 -1.56831 -0.714649 10.3563 -8.85085 -3.00365 -3.00968 -0.0226636 0.0462048 0.000530889 0.662642 -4.20648 4.41578 -0.786912 3.93559 5.38017 -1.75399 -3.40269 19.0402 -1.94603 -31.8369 -3.90527 13.789 -77.9266 -44.9509 -35.6677 -169.622 71.297 171.12 8.94394 8.939 -8.28891 31.737 -1.44905 -7.91077 52.906 -25.5067 20.9648 9.30618 64.0424 3.16493 -0.519554 9.91523 1.94355 1.54872 0.320802 2.90483 1.5629 9.58708 14.2949 -0.0734127 -3.77739 0.00901221 -1.35049e-009 8.75224e-006 -1.46981e-008 
45.4813 103.143 120.406 0.101224 -3.95956 -5.46235 0.58153 -0.0321944 -1.52442 -0.789396 10.4316 -9.02608 -2.95526 -3.02706 -0.024608 0.0462048 0.000530889 0.662642 -4.05228 4.53697 -0.730985 3.87432 5.30432 -1.67828 -3.42487 19.1123 -1.99807 -31.7023 -3.82385 13.6115 -78.1233 -44.9178 -35.7182 -169.601 71.3482 171.145 8.98891 8.92932 -8.353 31.6616 -1.52682 -8.12565 52.8004 -24.9882 20.9922 9.46922 63.1818 3.31541 -0.759825 9.8989 1.62091 1.50307 0.204526 2.84658 1.56237 9.65214 14.1831 -0.0742121 -3.81562 0.00801424 -1.35049e-009 8.75224e-006 -1.46981e-008 
45.5286 103.144 120.391 0.149934 -3.90813 -5.40005 0.507824 -0.146541 -1.55835 -0.80087 10.519 -9.02838 -2.85995 -3.0649 -0.0257767 0.0462048 0.000530889 0.662642 -3.92917 4.63501 -0.676587 3.81535 5.24245 -1.60688 -3.63733 19.1587 -1.93429 -31.773 -3.85099 13.664 -78.2033 -44.9112 -35.7696 -169.643 71.295 171.216 8.72829 8.95579 -8.42025 31.3473 -1.49135 -8.06946 53.3674 -25.2436 20.804 8.7593 63.5669 3.87273 -0.840172 9.89464 1.86959 1.44029 0.130136 2.80862 1.54034 9.63078 14.1826 -0.0021272 -3.77636 0.00767195 -1.35049e-009 8.75224e-006 -1.46981e-008 
45.5544 103.145 120.353 0.191188 -3.81877 -5.34934 0.460877 -0.283137 -1.56284 -0.801363 10.5521 -9.05928 -2.82274 -3.05988 -0.0261208 0.0462048 0.000530889 0.662642 -3.81645 4.68302 -0.623436 3.73149 5.20055 -1.53142 -3.65428 19.1687 -1.99615 -31.7635 -3.84626 13.6541 -78.0126 -44.7747 -35.7366 -169.489 71.4581 170.889 8.71759 8.96339 -8.32751 31.2559 -1.42869 -7.91299 53.5008 -25.3372 20.7467 8.46002 63.4438 4.13161 -0.620931 9.9082 1.78232 1.38108 -0.00125157 2.75138 1.54815 9.61779 14.1882 0.0370049 -3.72798 0.00765253 -1.35049e-009 8.75224e-006 -1.46981e-008 
45.5566 103.145 120.301 0.183622 -3.68412 -5.13606 0.518491 -0.446928 -1.48382 -0.825823 10.5618 -9.35993 -2.8049 -3.02791 -0.0254763 0.0462048 0.000530889 0.662642 -3.68317 4.70527 -0.630167 3.71627 5.12699 -1.5308 -3.81251 19.3434 -1.99852 -31.7976 -3.85757 13.6747 -78.1881 -44.9653 -35.8467 -169.79 71.0849 171.419 8.72433 8.95395 -8.45512 31.3065 -1.41977 -7.88308 53.4895 -25.2865 20.8225 8.61043 63.2624 3.98442 -0.881837 9.89158 1.54635 1.42054 -0.260701 2.74409 1.54663 9.72258 14.0273 -0.0241841 -3.75154 0.00762325 -1.35049e-009 8.75224e-006 -1.46981e-008 
45.5554 103.144 120.225 0.226178 -3.60833 -4.87537 0.469188 -0.572321 -1.53089 -0.759243 10.5841 -9.60534 -2.88292 -2.99437 -0.0234882 0.0462048 0.000530889 0.662642 -3.67865 4.82345 -0.663529 3.76665 5.06926 -1.57596 -3.89641 19.4955 -2.12383 -31.8193 -3.86964 13.7005 -77.9921 -44.8305 -35.7322 -169.621 71.2769 171.068 8.66841 8.97067 -8.3062 31.556 -1.46386 -7.97137 53.3203 -25.3822 21.2336 9.1929 63.4329 3.24912 -0.86952 9.89277 1.77407 1.37469 -0.466785 2.64429 1.59526 9.78835 13.8488 -0.0138265 -3.67858 0.00724922 -1.35049e-009 8.75224e-006 -1.46981e-008 
45.5543 103.141 120.147 0.243658 -3.5866 -4.70767 0.43463 -0.645497 -1.5831 -0.701373 10.6044 -9.73195 -2.94552 -2.96265 -0.0189868 0.0462048 0.000530889 0.662642 -3.56799 5.11225 -0.655486 3.7109 4.84952 -1.55387 -4.33032 19.677 -1.95461 -31.8298 -3.88157 13.729 -77.8981 -44.8544 -35.6415 -169.625 71.2605 171.045 8.7011 8.96449 -8.33652 31.761 -1.47176 -7.96812 53.0763 -25.417 21.426 9.58261 63.4925 2.80823 -0.777102 9.89872 1.97797 1.37789 -0.591522 2.63053 1.58175 9.84137 13.677 0.0444901 -3.65632 0.00619835 -1.35049e-009 8.75224e-006 -1.46981e-008 
45.5288 103.134 120.024 0.214442 -3.52406 -4.44066 0.490341 -0.760785 -1.55215 -0.648255 10.5873 -10.0695 -2.98302 -2.86727 -0.0129124 0.0462048 0.000530889 0.662642 -3.48365 5.39783 -0.679449 3.73853 4.69994 -1.58677 -4.59847 19.6694 -1.96673 -31.857 -3.89004 13.744 -77.9407 -44.9572 -35.6534 -169.576 71.3686 171.075 9.24089 8.89715 -8.3788 31.7362 -1.46006 -7.94011 53.1734 -25.2493 21.4716 9.63546 63.5764 2.86369 -0.839662 9.89426 1.58085 1.45002 -0.876004 2.61183 1.61278 10.0474 13.4199 0.0714594 -3.63469 0.00413685 -1.35049e-009 8.75224e-006 -1.46981e-008 
45.5164 103.125 119.835 0.239238 -3.42143 -4.06749 0.448802 -0.989931 -1.62286 -0.522131 10.6297 -10.4119 -3.04304 -2.76734 -0.00925599 0.0462048 0.000530889 0.662642 -3.40654 5.82018 -0.681002 3.82107 4.39527 -1.6048 -4.84358 19.7166 -2.03869 -31.9136 -3.90587 13.7699 -77.8249 -44.8682 -35.6037 -169.477 71.4721 170.865 9.0384 8.93327 -8.21037 31.5687 -1.43172 -7.88444 53.6348 -25.5842 21.5765 9.62411 64.278 2.51991 -0.950982 9.88786 1.62319 1.47876 -1.29479 2.58532 1.58836 10.3052 13.0722 0.160028 -3.58618 0.000408193 -1.35049e-009 8.75224e-006 -1.46981e-008 
45.515 103.115 119.595 0.395093 -3.17038 -3.62689 0.240117 -1.52461 -1.79182 -0.374999 10.8794 -10.7414 -3.06106 -2.72584 -0.00693927 0.0462048 0.000530889 0.662642 -3.43984 6.17051 -0.57911 4.10146 4.13182 -1.55552 -5.24856 19.6222 -2.20247 -32.159 -3.99411 13.9342 -77.976 -44.7945 -35.6668 -169.848 70.9174 171.29 9.33939 8.88135 -8.43517 31.5028 -1.40237 -7.81414 53.5263 -25.8259 21.8311 9.79762 64.0722 2.05239 -0.639047 9.90742 2.01665 1.31529 -1.85973 2.35816 1.62123 10.418 12.8816 0.319108 -3.42009 -0.00682337 -1.35049e-009 8.75224e-006 -1.46981e-008 
45.5161 103.103 119.237 0.457425 -2.84705 -2.85531 0.183016 -2.04436 -1.81587 -0.246836 10.8736 -11.5376 -3.12942 -2.53719 0.00240099 0.0462048 0.000530889 0.662642 -3.10473 6.74459 -0.587003 3.96836 3.84591 -1.53126 -5.78745 19.203 -1.89834 -32.1217 -3.97565 13.8961 -78.4498 -44.7136 -35.7907 -169.744 71.123 171.284 9.51315 8.86486 -8.37594 31.5097 -1.41751 -7.85346 53.508 -25.7522 22.0627 9.63864 63.762 2.29415 -0.396848 9.92171 1.73428 1.31776 -2.69461 2.26531 1.59321 10.6788 12.259 0.423984 -3.22155 -0.012584 -1.35049e-009 8.75224e-006 -1.46981e-008 
